<?xml version="1.0" encoding="UTF-8" standalone="no"?>
<svg width="80px" height="59px" viewBox="0 0 80 59" version="1.1" xmlns="http://www.w3.org/2000/svg" xmlns:xlink="http://www.w3.org/1999/xlink" xmlns:sketch="http://www.bohemiancoding.com/sketch/ns">
    <!-- Generator: Sketch 3.4.4 (17249) - http://www.bohemiancoding.com/sketch -->
    <title>logo</title>
    <desc>Created with Sketch.</desc>
    <defs>
        <path id="path-1" d="M8.168,3.118 C-2.29,6.12 -1.952,10.924 8.923,13.848 L8.923,13.848 C19.798,16.771 37.092,16.706 47.55,13.704 L47.55,13.704 C58.008,10.701 57.67,5.897 46.795,2.974 L46.795,2.974 C41.453,1.538 34.563,0.823 27.694,0.823 L27.694,0.823 C20.58,0.823 13.489,1.59 8.168,3.118"></path>
        <path id="path-3" d="M8.168,3.118 C-2.29,6.12 -1.952,10.924 8.923,13.848 L8.923,13.848 C19.798,16.771 37.092,16.706 47.55,13.704 L47.55,13.704 C58.008,10.701 57.67,5.897 46.795,2.974 L46.795,2.974 C41.453,1.538 34.563,0.823 27.694,0.823 L27.694,0.823 C20.58,0.823 13.489,1.59 8.168,3.118"></path>
        <path id="path-5" d="M8.168,3.118 C-2.29,6.12 -1.952,10.924 8.923,13.848 L8.923,13.848 C19.798,16.771 37.092,16.706 47.55,13.704 L47.55,13.704 C58.008,10.701 57.67,5.897 46.795,2.974 L46.795,2.974 C41.453,1.538 34.563,0.823 27.694,0.823 L27.694,0.823 C20.58,0.823 13.489,1.59 8.168,3.118"></path>
    </defs>
    <g id="assets" stroke="none" stroke-width="1" fill="none" fill-rule="evenodd" sketch:type="MSPage">
        <g id="logo" sketch:type="MSArtboardGroup">
            <g id="Group" sketch:type="MSLayerGroup">
                <path d="M67.1381,25.4806 C66.0361,25.4806 65.1401,26.3776 65.1401,27.4796 C65.1401,28.5816 66.0361,29.4776 67.1381,29.4776 C68.2401,29.4776 69.1361,28.5816 69.1361,27.4796 C69.1361,26.3776 68.2401,25.4806 67.1381,25.4806 M67.1381,33.9726 C63.5571,33.9726 60.6451,31.0606 60.6451,27.4796 C60.6451,23.8986 63.5571,20.9846 67.1381,20.9846 C70.7191,20.9846 73.6311,23.8986 73.6311,27.4796 C73.6311,31.0606 70.7191,33.9726 67.1381,33.9726 M31.5891,5.0716 C21.4361,5.0716 11.9421,6.6966 7.3991,9.2136 C4.8541,10.6236 4.5311,11.8706 4.5091,12.6846 C4.4081,16.4836 4.7711,28.1236 7.6351,36.2436 C9.7811,42.3286 13.8121,50.7436 23.9951,53.5416 C25.0501,53.8316 27.9301,54.5046 31.8961,54.5046 C35.1301,54.5046 39.8851,54.0286 44.1791,51.7616 C50.0691,48.6506 54.3041,42.5436 56.7651,33.6146 L57.9191,29.4346 L60.6701,32.7846 C62.2681,34.7296 64.6251,35.8456 67.1381,35.8456 C71.7511,35.8456 75.5041,32.0926 75.5041,27.4796 C75.5041,22.8656 71.7511,19.1116 67.1381,19.1116 C65.4811,19.1116 63.8801,19.5966 62.5061,20.5136 L58.7201,23.0426 L59.0151,18.5006 C59.3691,13.0416 58.9791,11.8516 58.9341,11.7336 C57.8451,9.2656 52.8601,7.8226 50.7291,7.2056 C45.0381,5.8056 38.4321,5.0716 31.5891,5.0716 M31.8961,58.9996 C28.7181,58.9996 25.4041,58.5906 22.8041,57.8756 C10.5891,54.5186 5.8771,44.7756 3.3961,37.7396 C0.3051,28.9756 -0.0919,16.5946 0.0151,12.5646 C0.0941,9.6016 1.8461,7.1526 5.2201,5.2816 C10.4591,2.3786 20.5641,0.5756 31.5891,0.5756 C38.7891,0.5756 45.7651,1.3546 51.7631,2.8296 L51.9261,2.8726 C54.9451,3.7456 61.1131,5.5316 63.0521,9.9316 C63.3671,10.6486 63.6891,11.8926 63.6541,15.0946 C64.7791,14.7786 65.9501,14.6166 67.1381,14.6166 C74.2301,14.6166 80.0001,20.3866 80.0001,27.4796 C80.0001,34.5716 74.2301,40.3416 67.1381,40.3416 C64.5741,40.3416 62.1171,39.5866 60.0361,38.2046 C57.1141,46.4806 52.4001,52.5026 46.2771,55.7366 C41.1711,58.4336 35.6381,58.9996 31.8961,58.9996" id="Border" fill="#BDBDBF" sketch:type="MSShapeGroup"></path>
                <path d="M67.1382,31.7249 C64.7932,31.7249 62.8922,29.8239 62.8922,27.4789 C62.8922,25.1339 64.7932,23.2329 67.1382,23.2329 C69.4832,23.2329 71.3842,25.1339 71.3842,27.4789 C71.3842,29.8239 69.4832,31.7249 67.1382,31.7249 M67.1382,16.8649 C61.2762,16.8649 56.5232,21.6169 56.5232,27.4789 C56.5232,33.3409 61.2762,38.0939 67.1382,38.0939 C73.0002,38.0939 77.7532,33.3409 77.7532,27.4789 C77.7532,21.6169 73.0002,16.8649 67.1382,16.8649" id="Handle" fill="#FEFEFE" sketch:type="MSShapeGroup"></path>
                <path d="M23.3996,55.7084 C27.8266,56.9244 37.4066,57.8814 45.2286,53.7494 C56.2706,47.9164 59.5796,33.8374 60.5696,25.9644 C60.5846,25.8394 62.1296,13.4144 60.9946,10.8374 C59.4786,7.3974 53.9886,5.8094 51.3506,5.0464 L51.2276,5.0124 C35.0196,1.0274 14.1456,2.9054 6.3106,7.2474 C3.6436,8.7254 2.3196,10.4844 2.2626,12.6244 C2.1576,16.5394 2.5376,28.5484 5.5156,36.9914 C7.8286,43.5524 12.2006,52.6314 23.3996,55.7084" id="Cup" fill="#FEFEFE" sketch:type="MSShapeGroup"></path>
                <path d="M50.7947,4.9742 C61.6697,7.8972 62.0077,12.7012 51.5497,15.7042 C41.0917,18.7062 23.7977,18.7702 12.9227,15.8472 C2.0477,12.9242 1.7097,8.1202 12.1677,5.1182 C22.6257,2.1152 39.9197,2.0512 50.7947,4.9742" id="Lip" fill="#E6E7E7" sketch:type="MSShapeGroup"></path>
                <g id="Dark" transform="translate(4.000000, 2.000000)">
                    <mask id="mask-2" sketch:name="Clip 16" fill="white">
                        <use xlink:href="#path-1"></use>
                    </mask>
                    <g id="Clip-16"></g>
                    <path d="M53.8504,10.5819 C53.8504,14.6419 42.2444,17.9339 27.9284,17.9339 C13.6124,17.9339 2.0064,14.6419 2.0064,10.5819 C2.0064,6.5219 13.6124,3.2299 27.9284,3.2299 C42.2444,3.2299 53.8504,6.5219 53.8504,10.5819" id="Fill-15" fill="#BB803F" sketch:type="MSShapeGroup" mask="url(#mask-2)"></path>
                </g>
                <g id="Medium" transform="translate(4.000000, 2.000000)">
                    <mask id="mask-4" sketch:name="Clip 19" fill="white">
                        <use xlink:href="#path-3"></use>
                    </mask>
                    <g id="Clip-19"></g>
                    <path d="M29.5148,17.1848 C18.0968,17.1848 9.7528,14.4438 9.7528,11.7528 C9.7528,9.0618 21.8698,9.2748 21.8698,9.0928 C21.8698,8.9118 17.9328,8.4488 17.9328,6.6328 C17.9328,4.8158 18.9938,4.2598 29.6708,4.2598 C40.3478,4.2598 51.8058,7.0698 51.8058,12.4078 C51.8058,17.7468 50.8898,14.9348 49.6518,15.5928 C49.6518,15.5928 40.9328,17.1848 29.5148,17.1848" id="Fill-18" fill="#E0BD82" sketch:type="MSShapeGroup" mask="url(#mask-4)"></path>
                </g>
                <g id="Light" transform="translate(4.000000, 2.000000)">
                    <mask id="mask-6" sketch:name="Clip 22" fill="white">
                        <use xlink:href="#path-5"></use>
                    </mask>
                    <g id="Clip-22"></g>
                    <path d="M30.7636,14.656 C27.1406,14.656 19.5836,13.547 19.5836,11.698 C19.5836,9.848 29.0356,11.086 29.0356,10.811 C29.0356,10.535 25.2356,10.188 25.2356,8.723 C25.2356,7.257 31.6066,7.507 32.1376,7.507 C32.6676,7.507 40.1916,7.6 40.1916,11.191 C40.1916,14.781 34.3866,14.656 30.7636,14.656" id="Fill-21" fill="#FCFAF8" sketch:type="MSShapeGroup" mask="url(#mask-6)"></path>
                </g>
            </g>
        </g>
    </g>
</svg>